HIERARCHY
ROOT Hips
{
	OFFSET	0.00	0.00	0.00
	CHANNELS 6 Xposition Yposition Zposition Zrotation Xrotation Yrotation
	JOINT LeftUpLeg
	{
		OFFSET	 0.126116	-0.065224	 0.014019
		CHANNELS 3 Zrotation Xrotation Yrotation
		JOINT LeftLeg
		{
			OFFSET	 0.000000	 0.569914	 0.000000
			CHANNELS 3 Zrotation Xrotation Yrotation
			JOINT LeftFoot
			{
				OFFSET	 0.000000	 0.544423	 0.000000
				CHANNELS 3 Zrotation Xrotation Yrotation
				JOINT LeftToeBase
				{
					OFFSET	 0.000000	 0.207117	 0.000000
					CHANNELS 3 Zrotation Xrotation Yrotation
					End Site
					{
						OFFSET	 0.000000	 0.207117	 0.000000
					}
				}
			}
		}
	}
	JOINT RightUpLeg
	{
		OFFSET	-0.124023	-0.065224	 0.008373
		CHANNELS 3 Zrotation Xrotation Yrotation
		JOINT RightLeg
		{
			OFFSET	 0.000000	 0.570047	 0.000000
			CHANNELS 3 Zrotation Xrotation Yrotation
			JOINT RightFoot
			{
				OFFSET	 0.000000	 0.544354	 0.000000
				CHANNELS 3 Zrotation Xrotation Yrotation
				JOINT RightToeBase
				{
					OFFSET	 0.000000	 0.207540	 0.000000
					CHANNELS 3 Zrotation Xrotation Yrotation
					End Site
					{
						OFFSET	 0.000000	 0.207540	 0.000000
					}
				}
			}
		}
	}
	JOINT Spine
	{
		OFFSET	 0.000184	 0.117403	 0.007763
		CHANNELS 3 Zrotation Xrotation Yrotation
		JOINT Spine1
		{
			OFFSET	 0.000000	 0.137269	 0.000000
			CHANNELS 3 Zrotation Xrotation Yrotation
			JOINT Spine2
			{
				OFFSET	 0.000000	 0.156879	 0.000000
				CHANNELS 3 Zrotation Xrotation Yrotation
				JOINT LeftShoulder
				{
					OFFSET	 0.080501	 0.160143	 0.002496
					CHANNELS 3 Zrotation Xrotation Yrotation
					JOINT LeftArm
					{
						OFFSET	 0.000000	 0.164363	 0.000000
						CHANNELS 3 Zrotation Xrotation Yrotation
						JOINT LeftForeArm
						{
							OFFSET	 0.000000	 0.364576	 0.000000
							CHANNELS 3 Zrotation Xrotation Yrotation
							JOINT LeftHand
							{
								OFFSET	 0.000000	 0.360812	 0.000000
								CHANNELS 3 Zrotation Xrotation Yrotation
								JOINT LeftHandIndex1
								{
									OFFSET	 0.000000	 0.086006	 0.000000
									CHANNELS 3 Zrotation Xrotation Yrotation
									JOINT LeftHandIndex2
									{
										OFFSET	 0.000000	 0.047237	 0.000000
										CHANNELS 3 Zrotation Xrotation Yrotation
										JOINT LeftHandIndex3
										{
											OFFSET	-0.004284	 0.038165	 0.000551
											CHANNELS 3 Zrotation Xrotation Yrotation
											End Site
											{
												OFFSET	-0.004284	 0.038165	 0.000551
											}
										}
									}
								}
							}
						}
					}
				}
				JOINT Neck
				{
					OFFSET	 0.000000	 0.176489	 0.000000
					CHANNELS 3 Zrotation Xrotation Yrotation
					JOINT Head
					{
						OFFSET	 0.000000	 0.077941	 0.001747
						CHANNELS 3 Zrotation Xrotation Yrotation
						End Site
						{
							OFFSET	 0.000000	 0.077941	 0.001747
						}
					}
				}
				JOINT RightShoulder
				{
					OFFSET	-0.080363	 0.159706	-0.000306
					CHANNELS 3 Zrotation Xrotation Yrotation
					JOINT RightArm
					{
						OFFSET	 0.000000	 0.164196	 0.000000
						CHANNELS 3 Zrotation Xrotation Yrotation
						JOINT RightForeArm
						{
							OFFSET	 0.000000	 0.365611	 0.000000
							CHANNELS 3 Zrotation Xrotation Yrotation
							JOINT RightHand
							{
								OFFSET	 0.000000	 0.360648	 0.000000
								CHANNELS 3 Zrotation Xrotation Yrotation
								JOINT RightHandIndex1
								{
									OFFSET	 0.000000	 0.069977	 0.000000
									CHANNELS 3 Zrotation Xrotation Yrotation
									JOINT RightHandIndex2
									{
										OFFSET	 0.000000	 0.052305	 0.000000
										CHANNELS 3 Zrotation Xrotation Yrotation
										JOINT RightHandIndex3
										{
											OFFSET	 0.009002	 0.042196	 0.000782
											CHANNELS 3 Zrotation Xrotation Yrotation
											End Site
											{
												OFFSET	 0.009002	 0.042196	 0.000782
											}
										}
									}
								}
							}
						}
					}
				}
			}
		}
	}
}
MOTION
Frames:    11
Frame Time: 0.03333334
 0.448262	 1.298643	 0.475776	 0.431805	-6.503164	-173.796100	-177.591700	 15.610940	-23.930410	 3.930342	-14.467580	 7.430664	 9.475677	 61.599590	-3.036145	 1.292262	 28.425850	-2.713146	 173.377500	 15.849220	 32.587740	-2.519594	-12.883000	 0.050037	-5.949955	 58.826980	-3.517976	-1.288183	 28.361890	 2.710176	 1.242803	 1.960200	-29.831990	 0.396195	 1.990403	-0.611389	 0.152017	-6.491732	-1.560062	-120.461800	 5.952282	 93.250830	 23.779600	 53.855930	 38.532630	 29.055250	-8.225656	 8.042490	 99.109310	-53.579310	 53.033800	-6.580301	 5.266122	 0.000000	 0.000000	 0.000000	 0.000000	 0.000000	 0.000000	 0.000000	 0.288854	 7.924286	-1.780937	 0.315789	-8.151207	-0.848808	 123.986600	 6.786318	-94.578130	-28.876540	 14.111920	 3.101306	-113.065400	 7.644855	-37.069910	 6.844469	-40.139470	-7.761831	 15.208500	 5.323790	 0.000000	 0.000000	 0.000000	 0.000000	 0.000000	 0.000000	 0.000000
 0.447910	 1.300969	 0.469657	 0.428562	-5.365894	-173.981800	-177.423100	 13.731880	-24.225040	 3.778134	-13.930330	 6.783977	 7.448339	 61.731040	-1.560367	 1.292262	 28.425850	-2.713146	 173.736700	 13.862500	 32.396810	-2.346051	-12.022890	 0.189805	-4.900457	 58.602330	-3.954501	-1.288183	 28.361890	 2.710176	 1.244429	 1.722428	-33.903490	 0.309016	 1.435623	-0.568625	 0.139486	-6.365693	-1.428308	-120.849600	 5.093003	 92.857200	 23.079640	 46.249650	 36.357350	 29.365870	-8.103105	 8.716846	 89.819930	-51.972880	 39.906040	-6.580301	 5.266122	 0.000000	 0.000000	 0.000000	 0.000000	 0.000000	 0.000000	 0.000000	 0.319466	 7.849739	-1.697312	 0.329312	-7.422296	-0.836019	 123.829000	 6.242979	-94.277010	-25.562220	 13.225760	 2.799333	-112.299800	 7.784226	-37.448990	 4.648596	-38.742580	-6.046216	 15.208500	 5.323790	 0.000000	 0.000000	 0.000000	 0.000000	 0.000000	 0.000000	 0.000000
 0.447777	 1.302955	 0.464774	 0.406644	-4.432476	-174.180300	-177.287500	 12.217440	-24.500270	 3.671467	-13.552270	 6.336373	 5.923323	 61.804820	-0.513360	 1.292262	 28.425850	-2.713146	 173.983000	 12.253120	 32.163640	-2.213414	-11.361660	 0.143693	-4.327180	 58.388730	-3.988862	-1.288183	 28.361890	 2.710176	 1.200759	 1.545678	-36.461930	 0.209576	 0.858380	-0.512786	 0.142088	-6.249783	-1.313585	-121.174100	 4.445212	 92.557700	 23.748390	 39.755590	 33.792130	 29.315100	-7.942001	 8.924653	 81.203390	-48.862690	 28.853990	-6.580301	 5.266122	 0.000000	 0.000000	 0.000000	 0.000000	 0.000000	 0.000000	 0.000000	 0.349009	 7.589342	-1.628201	 0.318402	-6.792830	-0.821487	 123.722500	 5.845592	-94.058890	-22.762690	 12.357960	 2.477449	-110.803700	 7.824700	-37.515620	 1.998473	-37.231470	-4.663735	 15.208500	 5.323790	 0.000000	 0.000000	 0.000000	 0.000000	 0.000000	 0.000000	 0.000000
 0.446937	 1.305629	 0.458067	 0.378224	-3.310078	-174.418700	-177.199400	 10.181730	-24.796850	 3.439841	-12.727060	 5.753581	 4.086491	 61.706920	 0.805116	 1.292262	 28.425850	-2.713146	 174.313600	 10.032690	 31.867260	-1.952381	-10.051440	 0.068870	-3.669734	 57.883500	-3.983672	-1.288183	 28.361890	 2.710176	 1.101248	 1.367081	-38.413260	 0.053558	-0.484247	-0.457296	 0.159810	-5.807739	-1.172231	-121.569700	 3.665730	 92.191700	 25.333530	 30.578920	 29.961530	 28.868470	-7.722955	 8.692225	 70.877400	-41.855630	 15.476870	-6.580301	 5.266122	 0.000000	 0.000000	 0.000000	 0.000000	 0.000000	 0.000000	 0.000000	 0.385058	 7.275156	-1.544675	 0.304113	-6.033330	-0.803896	 123.596000	 5.365543	-93.796870	-19.046000	 11.254180	 1.736034	-107.165500	 7.806109	-37.360200	-3.114739	-35.253280	-2.954860	 15.208500	 5.323790	 0.000000	 0.000000	 0.000000	 0.000000	 0.000000	 0.000000	 0.000000
 0.444994	 1.307252	 0.452592	 0.381021	-2.329039	-174.625800	-177.179000	 8.406636	-25.034150	 3.206127	-11.888690	 5.218791	 2.562923	 61.498850	 1.971123	 1.292262	 28.425850	-2.713146	 174.628300	 7.980158	 31.603470	-1.653588	-8.538188	-0.030622	-3.180578	 57.177680	-3.904444	-1.288183	 28.361890	 2.710176	 0.990952	 1.228950	-39.097620	 0.052888	-1.149043	-0.445243	 0.112878	-5.659405	-1.053482	-121.920300	 2.984947	 91.866860	 27.396070	 23.090950	 26.582840	 28.182890	-7.453630	 8.172826	 64.261150	-34.286930	 6.853118	-6.580301	 5.266122	 0.000000	 0.000000	 0.000000	 0.000000	 0.000000	 0.000000	 0.000000	 0.417003	 6.999920	-1.471376	 0.290588	-5.367840	-0.788427	 123.487100	 4.944458	-93.568330	-16.478510	 10.831060	 0.633250	-102.622600	 7.720119	-37.009910	-8.999133	-33.908480	-2.509217	 15.208500	 5.323790	 0.000000	 0.000000	 0.000000	 0.000000	 0.000000	 0.000000	 0.000000
 0.443193	 1.307066	 0.450577	 0.329492	-1.932037	-174.938700	-177.238200	 7.775951	-25.300050	 3.157061	-11.712000	 4.995624	 2.021394	 61.582890	 2.431566	 1.292262	 28.425850	-2.713146	 174.616600	 7.399785	 31.266300	-1.606491	-8.298518	-0.006585	-2.850075	 57.130580	-3.982980	-1.288183	 28.361890	 2.710176	 0.914576	 1.199779	-38.269730	 0.026797	-1.213372	-0.377607	 0.095584	-5.829725	-0.919845	-121.818600	 3.008675	 91.874360	 28.423300	 20.183060	 25.146540	 26.796990	-7.067215	 6.679594	 62.872060	-27.793050	 4.925053	-6.580301	 5.266122	 0.000000	 0.000000	 0.000000	 0.000000	 0.000000	 0.000000	 0.000000	 0.476818	 6.400205	-1.380466	 0.077639	-5.016669	-0.751650	 123.375900	 4.948507	-93.560540	-15.273710	 10.935430	-0.563719	-99.189030	 7.362237	-35.832940	-13.456490	-30.955890	-4.201570	 15.208500	 5.323790	 0.000000	 0.000000	 0.000000	 0.000000	 0.000000	 0.000000	 0.000000
 0.441643	 1.306612	 0.449496	 0.298773	-1.719236	-175.134200	-177.294300	 7.481019	-25.463440	 3.147056	-11.675960	 4.877250	 1.764140	 61.663620	 2.673151	 1.292262	 28.425850	-2.713146	 174.567900	 7.148484	 31.058980	-1.598161	-8.256017	 0.013513	-2.638180	 57.136710	-4.041076	-1.288183	 28.361890	 2.710176	 0.850950	 1.200316	-36.729030	 0.030159	-1.184392	-0.351888	 0.077120	-5.967199	-0.837923	-121.733600	 3.058866	 91.895830	 29.274100	 18.271880	 24.144990	 25.683950	-6.756626	 5.461858	 62.144400	-23.347790	 3.663087	-6.580301	 5.266122	 0.000000	 0.000000	 0.000000	 0.000000	 0.000000	 0.000000	 0.000000	 0.515142	 6.018047	-1.323866	-0.062775	-4.818416	-0.727311	 123.307900	 4.972550	-93.566930	-14.589590	 11.171800	-1.493397	-96.559030	 7.070151	-34.872660	-16.561590	-29.000790	-5.431403	 15.208500	 5.323790	 0.000000	 0.000000	 0.000000	 0.000000	 0.000000	 0.000000	 0.000000
 0.439888	 1.306017	 0.448466	 0.271697	-1.512530	-175.323800	-177.356900	 7.215989	-25.622270	 3.144057	-11.665100	 4.763335	 1.527171	 61.749300	 2.906608	 1.292262	 28.425850	-2.713146	 174.507400	 6.923734	 30.858430	-1.594708	-8.238459	 0.031645	-2.425388	 57.142640	-4.096617	-1.288183	 28.361890	 2.710176	 0.775399	 1.207797	-34.514620	 0.048074	-1.105820	-0.337168	 0.052539	-6.124258	-0.758839	-121.651100	 3.107579	 91.916590	 30.244690	 16.243130	 23.081440	 24.428580	-6.402828	 4.093755	 61.493850	-18.769310	 2.246399	-6.580301	 5.266122	 0.000000	 0.000000	 0.000000	 0.000000	 0.000000	 0.000000	 0.000000	 0.552644	 5.647483	-1.268768	-0.199297	-4.626273	-0.703072	 123.241900	 4.995869	-93.573060	-13.990160	 11.496250	-2.481779	-93.591350	 6.739928	-33.789250	-19.773730	-27.048000	-6.660514	 15.208500	 5.323790	 0.000000	 0.000000	 0.000000	 0.000000	 0.000000	 0.000000	 0.000000
 0.438079	 1.305353	 0.447509	 0.247718	-1.315141	-175.504900	-177.421100	 6.977609	-25.774150	 3.145841	-11.671530	 4.654764	 1.306489	 61.835780	 3.130425	 1.292262	 28.425850	-2.713146	 174.441300	 6.724111	 30.667110	-1.595158	-8.240791	 0.047770	-2.218640	 57.150360	-4.148468	-1.288183	 28.361890	 2.710176	 0.690943	 1.218550	-31.769190	 0.074636	-0.988311	-0.328636	 0.024838	-6.294141	-0.683505	-121.572300	 3.154182	 91.936350	 31.246330	 14.213380	 22.035040	 23.075140	-6.017249	 2.625949	 60.989620	-14.270960	 0.752925	-6.580301	 5.266122	 0.000000	 0.000000	 0.000000	 0.000000	 0.000000	 0.000000	 0.000000	 0.588831	 5.293050	-1.215868	-0.330215	-4.442314	-0.679291	 123.178800	 5.018187	-93.578910	-13.505420	 11.868760	-3.454366	-90.423730	 6.381557	-32.616630	-22.905940	-25.128700	-7.817337	 15.208500	 5.323790	 0.000000	 0.000000	 0.000000	 0.000000	 0.000000	 0.000000	 0.000000
 0.436475	 1.304739	 0.446707	 0.228017	-1.143050	-175.662300	-177.477500	 6.777058	-25.906520	 3.149630	-11.685170	 4.560382	 1.115038	 61.912460	 3.326639	 1.292262	 28.425850	-2.713146	 174.381000	 6.558996	 30.500600	-1.597835	-8.254425	 0.060889	-2.038874	 57.159740	-4.192316	-1.288183	 28.361890	 2.710176	 0.608531	 1.228434	-28.918480	 0.102458	-0.853793	-0.322964	-0.001288	-6.457049	-0.618217	-121.503700	 3.194746	 91.953490	 32.130060	 12.440010	 21.139930	 21.783310	-5.646016	 1.233618	 60.683620	-10.366070	-0.627253	-6.580301	 5.266122	 0.000000	 0.000000	 0.000000	 0.000000	 0.000000	 0.000000	 0.000000	 0.620556	 4.984793	-1.169697	-0.444354	-4.282435	-0.658130	 123.124000	 5.037599	-93.583990	-13.168570	 12.223630	-4.286319	-87.460560	 6.036652	-31.491710	-25.587650	-23.426230	-8.767875	 15.208500	 5.323790	 0.000000	 0.000000	 0.000000	 0.000000	 0.000000	 0.000000	 0.000000
 0.434841	 1.304095	 0.445910	 0.208247	-0.963617	-175.826300	-177.534700	 6.571990	-26.044570	 3.154930	-11.704270	 4.461796	 0.911974	 61.992480	 3.533635	 1.292262	 28.425850	-2.713146	 174.318100	 6.393960	 30.326840	-1.602624	-8.278816	 0.073768	-1.853835	 57.173860	-4.236442	-1.288183	 28.361890	 2.710176	 0.514597	 1.236980	-25.527520	 0.133310	-0.684249	-0.316265	-0.029212	-6.640591	-0.550360	-121.432200	 3.237092	 91.971340	 33.023070	 10.648920	 20.257180	 20.327620	-5.224686	-0.322493	 60.522800	-6.404517	-2.118356	-6.580301	 5.266122	 0.000000	 0.000000	 0.000000	 0.000000	 0.000000	 0.000000	 0.000000	 0.653899	 4.663275	-1.121376	-0.563681	-4.115642	-0.635579	 123.066700	 5.057871	-93.589290	-12.903070	 12.604990	-5.111282	-84.231670	 5.645368	-30.217480	-28.260060	-21.632750	-9.665059	 15.208500	 5.323790	 0.000000	 0.000000	 0.000000	 0.000000	 0.000000	 0.000000	 0.000000
